<svg width="22" height="40" viewBox="0 0 22 40" fill="none" xmlns="http://www.w3.org/2000/svg">
<path d="M13.7401 1.02557L13.7262 9.56689L13.7121 18.1082L13.0587 16.1255L13.0575 16.1217L12.2132 35.137C13.0434 37.6583 13.4881 39.0043 13.4931 39.0096C13.4995 39.0167 13.9728 39.0475 14.5444 39.078C16.2764 39.1704 18.4229 39.3683 20.0512 39.5861C20.4282 39.6364 20.7526 39.6622 20.7723 39.6433C20.7917 39.6246 20.8023 30.9279 20.7959 20.3174L20.7839 1.02557H13.7401V1.02557Z" fill="#B1060F" stroke="black" stroke-width="0.611984"/>
<path d="M1 1V20.3114C1 30.9328 1.00973 39.6333 1.02153 39.646C1.03333 39.6587 1.6449 39.5966 2.38069 39.5079C3.11627 39.4193 4.13321 39.3091 4.64023 39.263C5.41784 39.1924 7.73949 39.0319 8.00821 39.0301C8.08647 39.0297 8.09144 38.5959 8.10283 30.8508L8.11484 22.6718L8.67651 24.3811L8.87526 24.9852L9.71933 5.97458L9.42928 5.09287C8.99604 3.77505 8.56245 2.45737 8.1285 1.13983L8.08192 1H1V1Z" fill="#B1060F" stroke="black" stroke-width="0.611984"/>
<path d="M1 1V11.84L8.10034 32.0964C8.10117 31.6321 8.102 31.3814 8.10283 30.8508L8.11484 22.6718L8.67651 24.3811C11.8035 33.897 13.4834 38.9989 13.4933 39.0096C13.4997 39.0168 13.973 39.0475 14.5446 39.078C16.2766 39.1704 18.4231 39.3683 20.0514 39.5861C20.4284 39.6364 20.7529 39.6622 20.7725 39.6433C20.7858 39.6304 20.7947 35.3661 20.7969 29.3506L13.7297 7.49911L13.7264 9.56692L13.7123 18.1082L13.0589 16.1255C12.4205 14.1882 11.9942 12.8925 9.42928 5.09287C8.99604 3.77505 8.56245 2.45737 8.1285 1.13983L8.08192 1H1V1Z" fill="url(#paint0_radial)"/>
<path d="M1 1L8.11463 22.6816V22.6718L8.67631 24.3811C11.8033 33.897 13.4832 38.999 13.4931 39.0096C13.4995 39.0168 13.9728 39.0475 14.5444 39.078C16.2764 39.1704 18.4229 39.3683 20.0512 39.5861C20.4264 39.6362 20.7489 39.6618 20.7717 39.6435L13.7119 18.1045V18.1082L13.0585 16.1255C12.4201 14.1882 11.9938 12.8925 9.42886 5.09287C8.73904 2.99545 8.15376 1.21687 8.12809 1.13983L8.0815 1H1Z" fill="#E50914"/>
<path d="M13.7401 1.02557L13.7262 9.56689L13.7121 18.1082L13.0587 16.1255L13.0575 16.1217L12.2132 35.137C13.0434 37.6583 13.4881 39.0043 13.4931 39.0096C13.4995 39.0167 13.9728 39.0475 14.5444 39.078C16.2764 39.1704 18.4229 39.3683 20.0512 39.5861C20.4282 39.6364 20.7526 39.6622 20.7723 39.6433C20.7917 39.6246 20.8023 30.9279 20.7959 20.3174L20.7839 1.02557H13.7401V1.02557Z" fill="#B1060F" stroke="black" stroke-width="0.611984"/>
<path d="M1 1V20.3114C1 30.9328 1.00973 39.6333 1.02153 39.646C1.03333 39.6587 1.6449 39.5966 2.38069 39.5079C3.11627 39.4193 4.13321 39.3091 4.64023 39.263C5.41784 39.1924 7.73949 39.0319 8.00821 39.0301C8.08647 39.0297 8.09144 38.5959 8.10283 30.8508L8.11484 22.6718L8.67651 24.3811L8.87526 24.9852L9.71933 5.97458L9.42928 5.09287C8.99604 3.77505 8.56245 2.45737 8.1285 1.13983L8.08192 1H1V1Z" fill="#B1060F" stroke="black" stroke-width="0.611984"/>
<path d="M1 1V11.84L8.10034 32.0964C8.10117 31.6321 8.102 31.3814 8.10283 30.8508L8.11484 22.6718L8.67651 24.3811C11.8035 33.897 13.4834 38.9989 13.4933 39.0096C13.4997 39.0168 13.973 39.0475 14.5446 39.078C16.2766 39.1704 18.4231 39.3683 20.0514 39.5861C20.4284 39.6364 20.7529 39.6622 20.7725 39.6433C20.7858 39.6304 20.7947 35.3661 20.7969 29.3506L13.7297 7.49911L13.7264 9.56692L13.7123 18.1082L13.0589 16.1255C12.4205 14.1882 11.9942 12.8925 9.42928 5.09287C8.99604 3.77505 8.56245 2.45737 8.1285 1.13983L8.08192 1H1V1Z" fill="url(#paint1_radial)"/>
<path d="M1 1L8.11463 22.6816V22.6718L8.67631 24.3811C11.8033 33.897 13.4832 38.999 13.4931 39.0096C13.4995 39.0168 13.9728 39.0475 14.5444 39.078C16.2764 39.1704 18.4229 39.3683 20.0512 39.5861C20.4264 39.6362 20.7489 39.6618 20.7717 39.6435L13.7119 18.1045V18.1082L13.0585 16.1255C12.4201 14.1882 11.9938 12.8925 9.42886 5.09287C8.73904 2.99545 8.15376 1.21687 8.12809 1.13983L8.0815 1H1Z" fill="#E50914"/>
<defs>
<radialGradient id="paint0_radial" cx="0" cy="0" r="1" gradientUnits="userSpaceOnUse" gradientTransform="translate(10.5698 7.45538) scale(13.9446 14.9971)">
<stop/>
<stop offset="1" stop-opacity="0"/>
</radialGradient>
<radialGradient id="paint1_radial" cx="0" cy="0" r="1" gradientUnits="userSpaceOnUse" gradientTransform="translate(10.5698 7.45538) scale(13.9446 14.9971)">
<stop/>
<stop offset="1" stop-opacity="0"/>
</radialGradient>
</defs>
</svg>
